<svg xmlns="http://www.w3.org/2000/svg" class="block w-full h-auto" fill="none" preserveAspectRatio="xMidYMid meet" viewBox="0 0 253 93">
  <g id="Component 1">
    <path clip-rule="evenodd" d="M0 0H62.7632L55.4137 23.1451H21.2365L19.4976 23.9037V25.4889H21.2365V29.7525L18.7734 42.7787L28.7956 41.868L29.614 35.5501H31.6577L34.4113 31.6219H52.722L42.3126 64.4031L29.8409 57.2661H0V0ZM29.8024 34.0956L30.2306 31.6219H31.0246H33.8524L29.7367 34.6028L29.8024 34.0956Z" fill="white" fill-rule="evenodd" id="Rectangle 39528"></path>
    <g id="Group 1000004540">
      <g id="Rectangle 39533"></g>
    </g>
    <g id="Game">
      <path d="M204.347 56.11V40.2096L209.019 39.293V16.6977L204.347 15.7812V0.000340746H252.474V20.4038H247.139C245.4 19.0755 243.271 18.0128 240.753 17.2158C238.235 16.4188 235.471 16.0203V24.6679L243.245 22.3167V33.6741L232.46 31.283V40.09C235.497 40.09 238.274 39.7048 240.792 38.9344C243.336 38.1639 245.452 37.0879 247.139 35.7065H252.474V56.11H204.347Z" fill="white" id="Vector"></path>
      <path d="M119.385 56.11V40.2096L124.058 39.293V16.618L119.385 15.7015V0.000340746H147.459L159.257 21.44L170.938 0.000340746H199.012V15.7015L194.34 16.618V39.293L199.012 40.2096V56.11H170.938V28.6529L159.257 48.897L147.459 28.6529V56.11H119.385Z" fill="white" id="Vector_2"></path>
      <path d="M53.6591 56.1099V37.6192L58.1758 36.7027L68.9615 0.000303379H99.177L110.041 36.7027L114.518 37.6192V56.1099H93.6868L91.7399 46.6653H76.4375L74.4906 56.1099H53.6591ZM78.8127 34.0725H89.3647L84.0693 12.0352L78.8127 34.0725Z" fill="white" id="Vector_3"></path>
    </g>
    <g id="Group 1000004542">
      <path d="M12.8949 92.6509C8.89498 92.6509 5.74597 91.6247 3.44789 89.5723C1.14982 87.5088 0.000783552 84.4246 0.000783552 80.3197C0.000783552 77.5573 0.526522 75.2885 1.578 73.5134C2.64032 71.7384 4.14707 70.4237 6.09827 69.5695C8.0603 68.7152 10.3855 68.2881 13.0738 68.2881C15.0141 68.2881 16.7594 68.4656 18.3095 68.8206C19.8705 69.1645 21.2905 69.6305 22.5696 70.2185V77.4574H17.968C17.5561 76.8362 17.0846 76.3258 16.5534 75.9264C16.0331 75.5159 15.2743 75.3107 14.277 75.3107C12.8028 75.3107 11.6863 75.76 10.9275 76.6586C10.1795 77.5573 9.80554 78.7776 9.80554 80.3197C9.80554 82.1281 10.1362 83.4816 10.7974 84.3802C11.4695 85.2677 12.6727 85.7115 14.4071 85.7115C14.8949 85.7115 15.3393 85.6782 15.7404 85.6116C16.1523 85.5451 16.5643 85.4452 16.9762 85.3121V83.415H13.7079V79.3212H23.22V90.3711C21.7458 91.0034 20.1686 91.5415 18.4884 91.9853C16.8082 92.429 14.9437 92.6509 12.8949 92.6509Z" fill="white" id="Vector_4"></path>
      <path d="M44.4664 92.1848V84.4633L46.3525 84.0805L50.8565 68.7539H63.4743L68.0108 84.0805L69.8807 84.4633V92.1848H61.1816L60.3686 88.2408H53.9785L53.1655 92.1848H44.4664ZM54.9703 82.9822H59.3768L57.1654 73.7796L54.9703 82.9822Z" fill="white" id="Vector_5"></path>
      <path d="M91.1264 92.1848V85.5449L93.0776 85.1622V75.1275L91.1264 74.7448V68.7539H110.866C112.286 69.0978 113.44 69.6692 114.329 70.468C115.218 71.2667 115.663 72.4982 115.663 74.1623C115.663 74.7392 115.603 75.366 115.484 76.0428C115.375 76.7195 115.164 77.363 114.85 77.9732C114.535 78.5723 114.085 79.077 113.5 79.4875C112.915 79.8869 112.151 80.1088 111.207 80.1532C112.291 80.2086 113.289 80.4083 114.199 80.7523C115.11 81.0851 115.842 81.6065 116.394 82.3165C116.947 83.0266 117.224 83.9751 117.224 85.1622C117.224 86.8929 116.888 88.2741 116.215 89.3059C115.554 90.3265 114.6 91.0643 113.354 91.5192C112.107 91.9629 110.611 92.1848 108.866 92.1848H91.1264ZM102.866 78.5057H104.297C105.305 78.5057 106.08 78.3615 106.622 78.073C107.164 77.7735 107.435 77.0967 107.435 76.0428C107.435 75.0443 107.153 74.4175 106.59 74.1623C106.026 73.9072 105.262 73.7796 104.297 73.7796H102.866V78.5057ZM102.866 86.4935H104.297C105.305 86.4935 106.08 86.3437 106.622 86.0442C107.164 85.7446 107.435 85.0679 107.435 84.014C107.435 83.0155 107.153 82.3942 106.59 82.1501C106.026 81.895 105.262 81.7674 104.297 81.7674H102.866V86.4935Z" fill="white" id="Vector_6"></path>
      <path d="M145.706 92.1848V85.5782L147.657 85.079L140.941 75.6767L138.47 75.3106V68.7539H151.527V75.3106L149.998 75.6767L153.104 80.486L156.193 75.6767L154.665 75.3106V68.7539H167.705V75.3106L165.25 75.6767L158.535 85.079L160.502 85.5782V92.1848H145.706Z" fill="white" id="Vector_7"></path>
      <path d="M193.195 92.1848V85.5449L195.147 85.1622V74.9445C194.616 74.9445 194.079 75.0332 193.537 75.2107C193.006 75.3882 192.561 75.6489 192.204 75.9929C191.846 76.3368 191.667 76.7639 191.667 77.2742H188.952V68.7539H211.13V77.2742H208.415C208.415 76.7639 208.231 76.3368 207.862 75.9929C207.504 75.6489 207.06 75.3882 206.529 75.2107C205.997 75.0332 205.466 74.9445 204.935 74.9445V85.1622L206.886 85.5449V92.1848H193.195Z" fill="white" id="Vector_8"></path>
      <path d="M232.376 92.1848V85.5449L234.328 85.1622V75.7266L232.376 75.3439V68.7539H252.474V77.2742H250.246C249.52 76.7195 248.631 76.2758 247.579 75.9429C246.528 75.6101 245.373 75.4437 244.116 75.4437V79.0549L248.62 78.073V82.8158L244.116 81.8173V85.495C245.384 85.495 246.544 85.3342 247.596 85.0124C248.658 84.6907 249.541 84.2414 250.246 83.6645H252.474V92.1848H232.376Z" fill="white" id="Vector_9"></path>
    </g>
  </g>
</svg>
